<?xml version="1.0" encoding="UTF-8" standalone="no"?>
<svg width="62px" height="52px" viewBox="0 0 62 52" version="1.1" xmlns="http://www.w3.org/2000/svg" xmlns:xlink="http://www.w3.org/1999/xlink">
    <!-- Generator: Sketch 43.2 (39069) - http://www.bohemiancoding.com/sketch -->
    <title>Group 2</title>
    <desc>Created with Sketch.</desc>
    <defs></defs>
    <g id="Page-1" stroke="none" stroke-width="1" fill="none" fill-rule="evenodd" stroke-linecap="round" stroke-linejoin="round">
        <g id="Group-2" transform="translate(2.000000, 1.000000)" stroke="#000000">
            <g id="Group" stroke-width="2.8346">
                <polyline id="Shape" points="32.1 48.5 45.7 40.6 52.6 36.7 56 34.7 56.8 34.2 57.2 33.9 57.5 33.6 57.8 33.3 57.9 33 58 32.6 57.9 32.3"></polyline>
                <polyline id="Shape" points="0 32.2 0 32.7 0.1 33.1 0.3 33.5 0.7 33.8 1.1 34.2 1.6 34.5 2.6 35 6.6 37.4 14.7 42 22.7 46.7 24.7 47.8 25.7 48.4 26.2 48.7 26.8 48.9 27.5 49.1 28.2 49.2 28.9 49.3 29.6 49.2 30.3 49.1 30.9 49 31.5 48.8 32.1 48.5"></polyline>
                <polyline id="Shape" points="54.5 17.1 54.8 16.7 55 16.3 55.1 15.9 55.1 15.6 55 15.2 54.7 14.8 54.4 14.5 53.9 14.2 50 11.9 42.2 7.4 34.4 2.9 32.4 1.7 31.9 1.5 31.4 1.2 30.8 1 30.2 0.8 29.5 0.8 28.8 0.7 28.1 0.8 27.5 0.9 26.9 1.1 26.3 1.4 25.4 2"></polyline>
                <polyline id="Shape" points="4.7 13.9 4.2 14.2 3.7 14.5 3.4 14.8 3.1 15.2 3 15.6 3 16 3.1 16.3 3.3 16.7 3.6 17.1 4.1 17.4 5 17.9 6.9 19 14.6 23.4 22.2 27.8 26 30.1 26.5 30.3 27 30.6 27.7 30.7 28.3 30.8 29 30.9 29.6 30.9 30.3 30.8 30.9 30.6"></polyline>
                <path d="M0,32.2 L3,15.6" id="Shape"></path>
                <path d="M55.1,15.6 L57.9,32.3" id="Shape"></path>
                <polyline id="Shape" points="30.9 30.6 33.5 29.8 36.1 28.9 38.7 27.8 41.1 26.6 43.5 25.3 45.9 23.9 48.2 22.3 50.4 20.7 52.5 18.9 54.5 17.1"></polyline>
                <polyline id="Shape" points="4.7 13.9 7.2 13 9.7 12.1 12.1 10.9 14.5 9.7 16.8 8.4 19.1 6.9 21.2 5.4 23.3 3.7 25.4 2"></polyline>
            </g>
            <path d="M16.7,20.3 L13.7,14 L13.9,13.9 L25,16.1 L24.7,16.2 L20.7,15.4 L15.9,17.8 L17,20.1 L16.7,20.3 Z M14.1,14.1 L15.8,17.7 L20.4,15.4 L14.1,14.1 Z" id="Shape" stroke-width="1.28400004" fill="#000000" fill-rule="nonzero"></path>
        </g>
    </g>
</svg>